<?xml version="1.0" encoding="UTF-8" standalone="no"?><svg xmlns="http://www.w3.org/2000/svg" xmlns:xlink="http://www.w3.org/1999/xlink" contentStyleType="text/css" height="807px" preserveAspectRatio="none" style="width:1201px;height:807px;background:#FFFFFF;" version="1.1" viewBox="0 0 1201 807" width="1201px" zoomAndPan="magnify"><defs/><g><rect fill="#FFFFFF" height="626.4609" style="stroke:#181818;stroke-width:1.0;" width="10" x="38" y="91.2969"/><rect fill="#FFFFFF" height="605.3281" style="stroke:#181818;stroke-width:1.0;" width="10" x="280" y="112.4297"/><rect fill="none" height="180.7969" style="stroke:#000000;stroke-width:1.5;" width="780.5" x="414.5" y="198.6953"/><rect fill="none" height="274.1328" style="stroke:#000000;stroke-width:1.5;" width="696" x="170" y="393.4922"/><rect fill="none" height="147.3359" style="stroke:#000000;stroke-width:1.5;" width="334.5" x="404.5" y="417.625"/><rect fill="none" height="116.2031" style="stroke:#000000;stroke-width:1.5;" width="314.5" x="414.5" y="441.7578"/><line style="stroke:#181818;stroke-width:0.5;stroke-dasharray:5.0,5.0;" x1="43" x2="43" y1="81.2969" y2="726.7578"/><line style="stroke:#181818;stroke-width:0.5;stroke-dasharray:5.0,5.0;" x1="285" x2="285" y1="81.2969" y2="726.7578"/><line style="stroke:#181818;stroke-width:0.5;stroke-dasharray:5.0,5.0;" x1="517.5" x2="517.5" y1="81.2969" y2="726.7578"/><line style="stroke:#181818;stroke-width:0.5;stroke-dasharray:5.0,5.0;" x1="969.5" x2="969.5" y1="81.2969" y2="726.7578"/><text fill="#000000" font-family="sans-serif" font-size="14" lengthAdjust="spacing" textLength="70" x="5" y="77.9951">解析配置类</text><ellipse cx="43" cy="13.5" fill="#E2E2F0" rx="8" ry="8" style="stroke:#181818;stroke-width:0.5;"/><path d="M43,21.5 L43,48.5 M30,29.5 L56,29.5 M43,48.5 L30,63.5 M43,48.5 L56,63.5 " fill="none" style="stroke:#181818;stroke-width:0.5;"/><text fill="#000000" font-family="sans-serif" font-size="14" lengthAdjust="spacing" textLength="70" x="5" y="738.7529">解析配置类</text><ellipse cx="43" cy="750.5547" fill="#E2E2F0" rx="8" ry="8" style="stroke:#181818;stroke-width:0.5;"/><path d="M43,758.5547 L43,785.5547 M30,766.5547 L56,766.5547 M43,785.5547 L30,800.5547 M43,785.5547 L56,800.5547 " fill="none" style="stroke:#181818;stroke-width:0.5;"/><rect fill="#E2E2F0" height="30.2969" rx="2.5" ry="2.5" style="stroke:#181818;stroke-width:0.5;" width="244" x="163" y="50"/><text fill="#000000" font-family="sans-serif" font-size="14" lengthAdjust="spacing" textLength="230" x="170" y="69.9951">ConfigurationClassPostProcessor</text><rect fill="#E2E2F0" height="30.2969" rx="2.5" ry="2.5" style="stroke:#181818;stroke-width:0.5;" width="244" x="163" y="725.7578"/><text fill="#000000" font-family="sans-serif" font-size="14" lengthAdjust="spacing" textLength="230" x="170" y="745.7529">ConfigurationClassPostProcessor</text><rect fill="#E2E2F0" height="30.2969" rx="2.5" ry="2.5" style="stroke:#181818;stroke-width:0.5;" width="187" x="424.5" y="50"/><text fill="#000000" font-family="sans-serif" font-size="14" lengthAdjust="spacing" textLength="173" x="431.5" y="69.9951">ConfigurationClassParser</text><rect fill="#E2E2F0" height="30.2969" rx="2.5" ry="2.5" style="stroke:#181818;stroke-width:0.5;" width="187" x="424.5" y="725.7578"/><text fill="#000000" font-family="sans-serif" font-size="14" lengthAdjust="spacing" textLength="173" x="431.5" y="745.7529">ConfigurationClassParser</text><rect fill="#FFA500" height="30.2969" rx="2.5" ry="2.5" style="stroke:#181818;stroke-width:0.5;" width="249" x="845.5" y="50"/><text fill="#000000" font-family="sans-serif" font-size="14" lengthAdjust="spacing" textLength="235" x="852.5" y="69.9951">ComponentScanAnnotationParser</text><rect fill="#FFA500" height="30.2969" rx="2.5" ry="2.5" style="stroke:#181818;stroke-width:0.5;" width="249" x="845.5" y="725.7578"/><text fill="#000000" font-family="sans-serif" font-size="14" lengthAdjust="spacing" textLength="235" x="852.5" y="745.7529">ComponentScanAnnotationParser</text><rect fill="#FFFFFF" height="626.4609" style="stroke:#181818;stroke-width:1.0;" width="10" x="38" y="91.2969"/><rect fill="#FFFFFF" height="605.3281" style="stroke:#181818;stroke-width:1.0;" width="10" x="280" y="112.4297"/><polygon fill="#181818" points="268,108.4297,278,112.4297,268,116.4297,272,112.4297" style="stroke:#181818;stroke-width:1.0;"/><line style="stroke:#181818;stroke-width:1.0;" x1="48" x2="274" y1="112.4297" y2="112.4297"/><text fill="#000000" font-family="sans-serif" font-size="13" font-weight="bold" lengthAdjust="spacing" textLength="9" x="55" y="107.3638">1</text><text fill="#000000" font-family="sans-serif" font-size="13" lengthAdjust="spacing" textLength="200" x="68" y="107.3638">processConfigBeanDefinitions()</text><line style="stroke:#181818;stroke-width:1.0;" x1="290" x2="332" y1="141.5625" y2="141.5625"/><line style="stroke:#181818;stroke-width:1.0;" x1="332" x2="332" y1="141.5625" y2="154.5625"/><line style="stroke:#181818;stroke-width:1.0;" x1="291" x2="332" y1="154.5625" y2="154.5625"/><polygon fill="#181818" points="301,150.5625,291,154.5625,301,158.5625,297,154.5625" style="stroke:#181818;stroke-width:1.0;"/><text fill="#000000" font-family="sans-serif" font-size="13" font-weight="bold" lengthAdjust="spacing" textLength="9" x="297" y="136.4966">2</text><text fill="#000000" font-family="sans-serif" font-size="13" lengthAdjust="spacing" textLength="196" x="310" y="136.4966">构造ConfigurationClassParser()</text><polygon fill="#181818" points="506,179.6953,516,183.6953,506,187.6953,510,183.6953" style="stroke:#181818;stroke-width:1.0;"/><line style="stroke:#181818;stroke-width:1.0;" x1="290" x2="512" y1="183.6953" y2="183.6953"/><text fill="#000000" font-family="sans-serif" font-size="13" font-weight="bold" lengthAdjust="spacing" textLength="9" x="297" y="178.6294">3</text><text fill="#000000" font-family="sans-serif" font-size="13" lengthAdjust="spacing" textLength="46" x="310" y="178.6294">parse()</text><path d="M414.5,198.6953 L491.5,198.6953 L491.5,205.8281 L481.5,215.8281 L414.5,215.8281 L414.5,198.6953 " fill="#EEEEEE" style="stroke:#000000;stroke-width:1.5;"/><rect fill="none" height="180.7969" style="stroke:#000000;stroke-width:1.5;" width="780.5" x="414.5" y="198.6953"/><text fill="#000000" font-family="sans-serif" font-size="13" font-weight="bold" lengthAdjust="spacing" textLength="32" x="429.5" y="211.7622">loop</text><text fill="#000000" font-family="sans-serif" font-size="11" font-weight="bold" lengthAdjust="spacing" textLength="354" x="506.5" y="210.9058">[解析@Component新扫描出来的Beandefinition没有配置类为止]</text><line style="stroke:#181818;stroke-width:1.0;" x1="518" x2="560" y1="236.9609" y2="236.9609"/><line style="stroke:#181818;stroke-width:1.0;" x1="560" x2="560" y1="236.9609" y2="249.9609"/><line style="stroke:#181818;stroke-width:1.0;" x1="519" x2="560" y1="249.9609" y2="249.9609"/><polygon fill="#181818" points="529,245.9609,519,249.9609,529,253.9609,525,249.9609" style="stroke:#181818;stroke-width:1.0;"/><text fill="#000000" font-family="sans-serif" font-size="13" font-weight="bold" lengthAdjust="spacing" textLength="9" x="525" y="231.895">4</text><text fill="#000000" font-family="sans-serif" font-size="13" lengthAdjust="spacing" textLength="179" x="538" y="231.895">processConfigurationClass()</text><line style="stroke:#181818;stroke-width:1.0;" x1="518" x2="560" y1="279.0938" y2="279.0938"/><line style="stroke:#181818;stroke-width:1.0;" x1="560" x2="560" y1="279.0938" y2="292.0938"/><line style="stroke:#181818;stroke-width:1.0;" x1="519" x2="560" y1="292.0938" y2="292.0938"/><polygon fill="#181818" points="529,288.0938,519,292.0938,529,296.0938,525,292.0938" style="stroke:#181818;stroke-width:1.0;"/><text fill="#000000" font-family="sans-serif" font-size="13" font-weight="bold" lengthAdjust="spacing" textLength="9" x="525" y="274.0278">5</text><text fill="#000000" font-family="sans-serif" font-size="13" lengthAdjust="spacing" textLength="195" x="538" y="274.0278">doProcessConfigurationClass()</text><polygon fill="#181818" points="958,317.2266,968,321.2266,958,325.2266,962,321.2266" style="stroke:#181818;stroke-width:1.0;"/><line style="stroke:#181818;stroke-width:1.0;" x1="518" x2="964" y1="321.2266" y2="321.2266"/><text fill="#000000" font-family="sans-serif" font-size="13" font-weight="bold" lengthAdjust="spacing" textLength="9" x="525" y="316.1606">6</text><text fill="#000000" font-family="sans-serif" font-size="13" lengthAdjust="spacing" textLength="46" x="538" y="316.1606">parse()</text><path d="M754,334.2266 L754,374.2266 L1185,374.2266 L1185,344.2266 L1175,334.2266 L754,334.2266 " fill="#FEFFDD" style="stroke:#181818;stroke-width:0.5;"/><path d="M1175,334.2266 L1175,344.2266 L1185,344.2266 L1175,334.2266 " fill="#FEFFDD" style="stroke:#181818;stroke-width:0.5;"/><text fill="#000000" font-family="sans-serif" font-size="13" lengthAdjust="spacing" textLength="410" x="760" y="351.2935">解析ComponentScans注解，扫描所有@Component注解标注的类。</text><text fill="#000000" font-family="sans-serif" font-size="13" lengthAdjust="spacing" textLength="395" x="760" y="366.4263">并且将扫描到的类封装成BeanDefinition注册到BeanDefinitionMap</text><path d="M170,393.4922 L234,393.4922 L234,400.625 L224,410.625 L170,410.625 L170,393.4922 " fill="#EEEEEE" style="stroke:#000000;stroke-width:1.5;"/><rect fill="none" height="274.1328" style="stroke:#000000;stroke-width:1.5;" width="696" x="170" y="393.4922"/><text fill="#000000" font-family="sans-serif" font-size="13" font-weight="bold" lengthAdjust="spacing" textLength="19" x="185" y="406.5591">alt</text><text fill="#000000" font-family="sans-serif" font-size="11" font-weight="bold" lengthAdjust="spacing" textLength="117" x="249" y="405.7026">[@Import引入的是啥]</text><path d="M404.5,417.625 L481.5,417.625 L481.5,424.7578 L471.5,434.7578 L404.5,434.7578 L404.5,417.625 " fill="#EEEEEE" style="stroke:#000000;stroke-width:1.5;"/><rect fill="none" height="147.3359" style="stroke:#000000;stroke-width:1.5;" width="334.5" x="404.5" y="417.625"/><text fill="#000000" font-family="sans-serif" font-size="13" font-weight="bold" lengthAdjust="spacing" textLength="32" x="419.5" y="430.6919">loop</text><text fill="#000000" font-family="sans-serif" font-size="11" font-weight="bold" lengthAdjust="spacing" textLength="183" x="496.5" y="429.8354">[循环直到没有新的@Import被引入]</text><path d="M414.5,441.7578 L478.5,441.7578 L478.5,448.8906 L468.5,458.8906 L414.5,458.8906 L414.5,441.7578 " fill="#EEEEEE" style="stroke:#000000;stroke-width:1.5;"/><rect fill="none" height="116.2031" style="stroke:#000000;stroke-width:1.5;" width="314.5" x="414.5" y="441.7578"/><text fill="#000000" font-family="sans-serif" font-size="13" font-weight="bold" lengthAdjust="spacing" textLength="19" x="429.5" y="454.8247">alt</text><text fill="#000000" font-family="sans-serif" font-size="11" font-weight="bold" lengthAdjust="spacing" textLength="95" x="493.5" y="453.9683">[是一个@Import]</text><line style="stroke:#181818;stroke-width:1.0;" x1="518" x2="560" y1="480.0234" y2="480.0234"/><line style="stroke:#181818;stroke-width:1.0;" x1="560" x2="560" y1="480.0234" y2="493.0234"/><line style="stroke:#181818;stroke-width:1.0;" x1="519" x2="560" y1="493.0234" y2="493.0234"/><polygon fill="#181818" points="529,489.0234,519,493.0234,529,497.0234,525,493.0234" style="stroke:#181818;stroke-width:1.0;"/><text fill="#000000" font-family="sans-serif" font-size="13" font-weight="bold" lengthAdjust="spacing" textLength="9" x="525" y="474.9575">7</text><text fill="#000000" font-family="sans-serif" font-size="13" lengthAdjust="spacing" textLength="109" x="538" y="474.9575">processImports()</text><line style="stroke:#000000;stroke-width:1.0;stroke-dasharray:2.0,2.0;" x1="414.5" x2="729" y1="502.0234" y2="502.0234"/><text fill="#000000" font-family="sans-serif" font-size="11" font-weight="bold" lengthAdjust="spacing" textLength="127" x="419.5" y="512.2339">[是一个 普通的“Bean”]</text><line style="stroke:#181818;stroke-width:1.0;" x1="518" x2="560" y1="536.9609" y2="536.9609"/><line style="stroke:#181818;stroke-width:1.0;" x1="560" x2="560" y1="536.9609" y2="549.9609"/><line style="stroke:#181818;stroke-width:1.0;" x1="519" x2="560" y1="549.9609" y2="549.9609"/><polygon fill="#181818" points="529,545.9609,519,549.9609,529,553.9609,525,549.9609" style="stroke:#181818;stroke-width:1.0;"/><text fill="#000000" font-family="sans-serif" font-size="13" font-weight="bold" lengthAdjust="spacing" textLength="9" x="525" y="531.895">8</text><text fill="#000000" font-family="sans-serif" font-size="13" lengthAdjust="spacing" textLength="179" x="538" y="531.895">processConfigurationClass()</text><path d="M180,576.9609 L180,661.9609 L856,661.9609 L856,586.9609 L846,576.9609 L180,576.9609 " fill="#FEFFDD" style="stroke:#181818;stroke-width:0.5;"/><path d="M846,576.9609 L846,586.9609 L856,586.9609 L846,576.9609 " fill="#FEFFDD" style="stroke:#181818;stroke-width:0.5;"/><text fill="#000000" font-family="sans-serif" font-size="13" lengthAdjust="spacing" textLength="176" x="186" y="594.0278">解析@Import注解 有三种情况</text><text fill="#000000" font-family="sans-serif" font-size="13" lengthAdjust="spacing" textLength="645" x="186" y="609.1606">1、ImportSelector 加载返回的beanClass全路径为BeanDefinition并尝试当做配置类解析这个BeanDefinition</text><text fill="#000000" font-family="sans-serif" font-size="13" lengthAdjust="spacing" textLength="599" x="186" y="624.2935">1.1 也可能引入的是DeferredImportSelector 即延时执行的ImportSelector 会放在一个List里最后回调</text><text fill="#000000" font-family="sans-serif" font-size="13" lengthAdjust="spacing" textLength="523" x="186" y="639.4263">2、ImportBeanDefinitionRegistrar 回调registerBeanDefinitions方法传入beanFactory</text><text fill="#000000" font-family="sans-serif" font-size="13" lengthAdjust="spacing" textLength="655" x="186" y="654.5591">3、一个普通的“Bean”(这个bean可能是配置类也可能是普通的bean) 并尝试当做配置类解析这个BeanDefinition</text><line style="stroke:#181818;stroke-width:1.0;" x1="518" x2="560" y1="695.7578" y2="695.7578"/><line style="stroke:#181818;stroke-width:1.0;" x1="560" x2="560" y1="695.7578" y2="708.7578"/><line style="stroke:#181818;stroke-width:1.0;" x1="519" x2="560" y1="708.7578" y2="708.7578"/><polygon fill="#181818" points="529,704.7578,519,708.7578,529,712.7578,525,708.7578" style="stroke:#181818;stroke-width:1.0;"/><text fill="#000000" font-family="sans-serif" font-size="13" font-weight="bold" lengthAdjust="spacing" textLength="9" x="525" y="690.6919">9</text><text fill="#000000" font-family="sans-serif" font-size="13" lengthAdjust="spacing" textLength="425" x="538" y="690.6919">processDeferredImportSelectors() 解析前面DeferredImportSelector</text></g></svg>